#!OML:ASF H:\BabyWalks\Project 1\Capture day 1\Session 1\baby.ASF
:FULLY-SPECIFIED
:DEGREES
548
root 24.2982 17.5276 -6.29046 1.04791 41.8361 -9.75338
lowerback 18.7214 2.08806 2.99699
upperback 4.57731 3.43861 0.489856
thorax -5.38632 1.69565 -1.96415
lowerneck -2.74836 -1.09933 6.62664
upperneck -6.06024 -1.66818 -3.33007
head -1.53462 -0.913315 -2.19502
rclavicle 7.15625e-015 1.19271e-014
rhumerus -54.8416 15.5032 -86.5846
rradius 61.018
rwrist -13.4364
rhand -20.2668 -15.1965
rfingers 7.12502
rthumb 6.08221 -45.0892
lclavicle 7.15625e-015 1.19271e-014
lhumerus -65.3526 -12.7468 88.5137
lradius 50.1817
lwrist -2.42691
lhand 10.7362 11.3528
lfingers 7.12502
lthumb 35.8243 37.7123
rfemur 12.1854 7.16628 30.0046
rtibia 7.45309
rfoot -8.93995 11.1767
rtoes 1.0513
lfemur -35.5344 -1.86662 -10.3088
ltibia 30.1781
lfoot -13.3251 -6.87815
ltoes -9.2331
549
root 24.4262 17.4978 -6.16602 0.853995 41.5376 -9.69075
lowerback 18.8063 2.10373 2.55539
upperback 4.6516 3.3673 0.334615
thorax -5.37153 1.66632 -1.86614
lowerneck -2.58189 -1.01077 6.70798
upperneck -6.31297 -1.53068 -3.13566
head -1.63655 -0.850338 -2.14684
rclavicle -7.25564e-014 4.09496e-014
rhumerus -54.7218 15.4945 -86.8774
rradius 60.5035
rwrist -13.0556
rhand -20.0593 -15.4637
rfingers 7.12502
rthumb 6.28256 -45.3506
lclavicle -7.25564e-014 4.09496e-014
lhumerus -64.5723 -12.6941 87.9227
lradius 50.0452
lwrist -2.72398
lhand 10.3677 11.1262
lfingers 7.12502
lthumb 35.475 37.57
rfemur 10.9618 7.08651 29.7936
rtibia 11.6445
rfoot -9.52827 12.281
rtoes 0.846205
lfemur -35.3348 -1.41889 -10.552
ltibia 31.3521
lfoot -11.9457 -7.70428
ltoes -7.10397
550
root 24.5518 17.4696 -6.04281 0.769883 41.2703 -9.46545
lowerback 18.9125 2.11804 1.98162
upperback 4.73484 3.26745 0.149261
thorax -5.36441 1.62407 -1.71957
lowerneck -2.41999 -0.920732 6.77157
upperneck -6.57856 -1.38833 -2.91476
head -1.74149 -0.785722 -2.08723
rclavicle 1.53064e-014 -9.14409e-015
rhumerus -54.5885 15.49 -87.1948
rradius 59.931
rwrist -12.6418
rhand -19.9341 -15.7906
rfingers 7.12502
rthumb 6.40344 -45.6738
lclavicle 1.53064e-014 -9.14409e-015
lhumerus -63.6189 -12.5402 87.2082
lradius 49.7421
lwrist -3.10504
lhand 9.93636 10.8638
lfingers 7.12502
lthumb 35.066 37.4044
rfemur 9.79114 6.85825 29.3853
rtibia 15.6102
rfoot -9.5223 13.54
rtoes 0.662328
lfemur -35.1435 -0.976393 -10.93
ltibia 32.6148
lfoot -11.0471 -8.46104
ltoes -4.71373
551
root 24.6747 17.4414 -5.92104 0.766273 41.0365 -9.11863
lowerback 19.0413 2.1317 1.3177
upperback 4.82545 3.14793 -0.060603
thorax -5.36374 1.5728 -1.54402
lowerneck -2.28726 -0.8323 6.79461
upperneck -6.81735 -1.24568 -2.64558
head -1.83194 -0.721274 -2.00461
rclavicle -1.03368e-014 1.82882e-014
rhumerus -54.4573 15.4967 -87.5437
rradius 59.32
rwrist -12.2115
rhand -19.8911 -16.1922
rfingers 7.12502
rthumb 6.44497 -46.0741
lclavicle -1.03368e-014 1.82882e-014
lhumerus -62.4981 -12.3057 86.3767
lradius 49.28
lwrist -3.55863
lhand 9.43705 10.5749
lfingers 7.12502
lthumb 34.5922 37.2253
rfemur 8.58877 6.61125 28.8394
rtibia 19.5228
rfoot -9.00063 14.7931
rtoes 0.380915
lfemur -34.9537 -0.582411 -11.3983
ltibia 33.9278
lfoot -10.6682 -9.09704
ltoes -2.2446
552
root 24.7955 17.4127 -5.80051 0.81122 40.8303 -8.69968
lowerback 19.1799 2.14802 0.619486
upperback 4.92356 3.02364 -0.287428
thorax -5.35883 1.51944 -1.3657
lowerneck -2.20267 -0.757533 6.77011
upperneck -7.0004 -1.12119 -2.33711
head -1.89608 -0.665499 -1.90038
rclavicle -5.56597e-015 -7.95139e-015
rhumerus -54.3435 15.5156 -87.9229
rradius 58.687
rwrist -11.7646
rhand -19.9353 -16.6547
rfingers 7.12502
rthumb 6.40224 -46.5379
lclavicle -5.56597e-015 -7.95139e-015
lhumerus -61.2229 -12.0148 85.4424
lradius 48.6832
lwrist -4.079
lhand 8.86607 10.2795
lfingers 7.12502
lthumb 34.0501 37.0521
rfemur 7.3478 6.35767 28.1971
rtibia 23.3865
rfoot -8.00797 15.9558
rtoes -0.160705
lfemur -34.7547 -0.26211 -11.9107
ltibia 35.2547
lfoot -10.8379 -9.57343
ltoes -0.0568046
553
root 24.9136 17.3838 -5.68162 0.847003 40.6481 -8.29088
lowerback 19.3301 2.16188 -0.0405128
upperback 5.03147 2.90257 -0.518235
thorax -5.3448 1.46733 -1.2137
lowerneck -2.19652 -0.695764 6.70582
upperneck -7.09828 -1.01735 -1.99705
head -1.91919 -0.619078 -1.77826
rclavicle -3.97569e-016 -3.33958e-014
rhumerus -54.2435 15.5604 -88.3378
rradius 58.048
rwrist -11.3114
rhand -20.0329 -17.1743
rfingers 7.12502
rthumb 6.30801 -47.0604
lclavicle -3.97569e-016 -3.33958e-014
lhumerus -59.8085 -11.6849 84.4161
lradius 47.9915
lwrist -4.64674
lhand 8.21472 9.98981
lfingers 7.12502
lthumb 33.4312 36.898
rfemur 6.07982 6.11934 27.5381
rtibia 27.1695
rfoot -6.64312 16.9369
rtoes -1.01562
lfemur -34.5375 -0.0210353 -12.3906
ltibia 36.5606
lfoot -11.412 -9.90675
ltoes 1.4813
554
root 25.0296 17.3555 -5.56445 0.843817 40.485 -7.93462
lowerback 19.4936 2.17067 -0.618281
upperback 5.14348 2.79027 -0.743877
thorax -5.32731 1.41867 -1.10487
lowerneck -2.25823 -0.648096 6.59473
upperneck -7.10827 -0.93596 -1.62903
head -1.90227 -0.582179 -1.63836
rclavicle 1.11319e-014 -3.33958e-014
rhumerus -54.1706 15.6377 -88.7858
rradius 57.4252
rwrist -10.8476
rhand -20.1368 -17.7298
rfingers 7.12502
rthumb 6.20772 -47.6189
lclavicle 1.11319e-014 -3.33958e-014
lhumerus -58.2928 -11.3211 83.3196
lradius 47.2545
lwrist -5.25641
lhand 7.48856 9.73313
lfingers 7.12502
lthumb 32.7406 36.7877
rfemur 4.8094 5.90791 26.9068
rtibia 30.8276
rfoot -5.06884 17.6577
rtoes -2.23306
lfemur -34.2788 0.153257 -12.8053
ltibia 37.8045
lfoot -12.1836 -10.1018
ltoes 2.63456
555
root 25.1431 17.3287 -5.44954 0.754138 40.3291 -7.69136
lowerback 19.6754 2.17556 -1.05624
upperback 5.2611 2.7001 -0.952846
thorax -5.30601 1.37965 -1.063
lowerneck -2.36646 -0.619799 6.45111
upperneck -7.05233 -0.884306 -1.25612
head -1.85708 -0.558334 -1.49116
rclavicle 1.31198e-014 2.38542e-015
rhumerus -54.1205 15.7283 -89.2529
rradius 56.832
rwrist -10.3614
rhand -20.1943 -18.282
rfingers 7.12502
rthumb 6.15228 -48.1727
lclavicle 1.31198e-014 2.38542e-015
lhumerus -56.7042 -10.9394 82.1799
lradius 46.527
lwrist -5.8932
lhand 6.69179 9.51969
lfingers 7.12502
lthumb 31.9823 36.7292
rfemur 3.55552 5.74899 26.373
rtibia 34.3302
rfoot -3.54206 18.0539
rtoes -3.93578
lfemur -33.9586 0.290658 -13.1041
ltibia 38.9533
lfoot -13.0558 -10.2027
ltoes 3.43469
556
root 25.2562 17.3053 -5.33613 0.600655 40.175 -7.52233
lowerback 19.8652 2.17606 -1.37827
upperback 5.37946 2.62675 -1.14934
thorax -5.28252 1.34791 -1.07763
lowerneck -2.49236 -0.607648 6.2846
upperneck -6.94876 -0.857417 -0.899367
head -1.79476 -0.545032 -1.34564
rclavicle -2.54444e-014 -1.74931e-014
rhumerus -54.1026 15.832 -89.7276
rradius 56.2803
rwrist -9.83716
rhand -20.1404 -18.7817
rfingers 7.12502
rthumb 6.2043 -48.6709
lclavicle -2.54444e-014 -1.74931e-014
lhumerus -55.0983 -10.5274 81.0233
lradius 45.8737
lwrist -6.55261
lhand 5.8479 9.36121
lfingers 7.12502
lthumb 31.1784 36.7285
rfemur 2.34033 5.62791 25.9045
rtibia 37.6601
rfoot -2.2951 18.1844
rtoes -6.03044
lfemur -33.5497 0.410701 -13.3304
ltibia 39.9722
lfoot -13.9732 -10.2549
ltoes 3.93266
557
root 25.3683 17.2866 -5.22437 0.4017 40.008 -7.4075
lowerback 20.0644 2.17499 -1.6165
upperback 5.49292 2.56756 -1.33195
thorax -5.26567 1.32239 -1.12879
lowerneck -2.60178 -0.60021 6.10384
upperneck -6.8356 -0.837616 -0.568268
head -1.73309 -0.534092 -1.20678
rclavicle 1.19271e-014 1.59028e-015
rhumerus -54.1098 15.9542 -90.1991
rradius 55.7749
rwrist -9.26792
rhand -19.9251 -19.1757
rfingers 7.12502
rthumb 6.41216 -49.0587
lclavicle 1.19271e-014 1.59028e-015
lhumerus -53.5169 -10.0682 79.8719
lradius 45.3551
lwrist -7.2132
lhand 4.9568 9.26231
lfingers 7.12502
lthumb 30.3288 36.7895
rfemur 1.15577 5.55388 25.4964
rtibia 40.8155
rfoot -1.47943 18.0606
rtoes -8.24706
lfemur -33.0435 0.541494 -13.5014
ltibia 40.8336
lfoot -14.922 -10.2155
ltoes 4.04689
558
root 25.4801 17.2733 -5.11391 0.216119 39.8371 -7.27521
lowerback 20.2587 2.17044 -1.83479
upperback 5.59602 2.50707 -1.51087
thorax -5.25633 1.29597 -1.18708
lowerneck -2.68315 -0.590767 5.92716
upperneck -6.72601 -0.81605 -0.282923
head -1.6783 -0.521562 -1.08424
rclavicle 2.78299e-014 -1.59028e-014
rhumerus -54.1426 16.091 -90.6554
rradius 55.3201
rwrist -8.64538
rhand -19.511 -19.4132
rfingers 7.12502
rthumb 6.81186 -49.2837
lclavicle 2.78299e-014 -1.59028e-014
lhumerus -52.0035 -9.55354 78.7478
lradius 45.0225
lwrist -7.85363
lhand 4.03605 9.22158
lfingers 7.12502
lthumb 29.4501 36.907
rfemur -0.0122968 5.49858 25.087
rtibia 43.7981
rfoot -1.17786 17.7282
rtoes -10.3268
lfemur -32.4372 0.685527 -13.6836
ltibia 41.5157
lfoot -15.8372 -10.1266
ltoes 3.97995
559
root 25.5916 17.2657 -5.00423 0.0901476 39.6619 -7.07877
lowerback 20.4309 2.16504 -2.08245
upperback 5.6842 2.43873 -1.69268
thorax -5.25214 1.2657 -1.22944
lowerneck -2.72663 -0.572693 5.76324
upperneck -6.63584 -0.783116 -0.0487085
head -1.63692 -0.503181 -0.981038
rclavicle 3.81667e-014 3.33958e-014
rhumerus -54.1953 16.2351 -91.0847
rradius 54.9114
rwrist -7.97011
rhand -18.8875 -19.449
rfingers 7.12502
rthumb 7.41376 -49.2991
lclavicle 3.81667e-014 3.33958e-014
lhumerus -50.5891 -8.99576 77.6747
lradius 44.9083
lwrist -8.44247
lhand 3.07946 9.21983
lfingers 7.12502
lthumb 28.5365 37.0623
rfemur -1.18991 5.4472 24.6337
rtibia 46.612
rfoot -1.35582 17.1971
rtoes -12.039
lfemur -31.748 0.8409 -13.9148
ltibia 42.0128
lfoot -16.6582 -10.0612
ltoes 4.00135
560
root 25.7026 17.2636 -4.89498 0.0486446 39.491 -6.79881
lowerback 20.571 2.15594 -2.38444
upperback 5.75138 2.35369 -1.87887
thorax -5.2554 1.22735 -1.2409
lowerneck -2.72793 -0.541341 5.6103
upperneck -6.56702 -0.731927 0.139684
head -1.60994 -0.475713 -0.89495
rclavicle -7.95139e-015 3.18055e-015
rhumerus -54.2738 16.3805 -91.4766
rradius 54.5473
rwrist -7.24674
rhand -18.0641 -19.2556
rfingers 7.12502
rthumb 8.2085 -49.0762
lclavicle -7.95139e-015 3.18055e-015
lhumerus -49.3042 -8.40491 76.6687
lradius 45.0361
lwrist -8.9535
lhand 2.0856 9.23278
lfingers 7.12502
lthumb 27.5865 37.2309
rfemur -2.3949 5.37939 24.1145
rtibia 49.2525
rfoot -1.91267 16.4836
rtoes -13.2058
lfemur -31.0004 1.00032 -14.2113
ltibia 42.3343
lfoot -17.3989 -10.0086
ltoes 4.04692
561
root 25.8126 17.2659 -4.78613 0.0911441 39.3479 -6.44682
lowerback 20.6819 2.13502 -2.73409
upperback 5.79424 2.24273 -2.06705
thorax -5.27074 1.17642 -1.22056
lowerneck -2.70562 -0.495202 5.46553
upperneck -6.50319 -0.661333 0.294857
head -1.58872 -0.438426 -0.821244
rclavicle -1.51076e-014 -1.27222e-014
rhumerus -54.3764 16.5155 -91.8244
rradius 54.2252
rwrist -6.50654
rhand -17.0603 -18.8485
rfingers 7.12502
rthumb 9.17714 -48.6288
lclavicle -1.51076e-014 -1.27222e-014
lhumerus -48.1621 -7.81879 75.7447
lradius 45.4083
lwrist -9.35516
lhand 1.03604 9.22882
lfingers 7.12502
lthumb 26.5823 37.3832
rfemur -3.63811 5.26671 23.536
rtibia 51.7024
rfoot -2.71908 15.6424
rtoes -13.86
lfemur -30.2273 1.14327 -14.5631
ltibia 42.5038
lfoot -18.0551 -9.98646
ltoes 4.14387
